<svg width="145" height="75" viewBox="0 0 145 75" fill="none" xmlns="http://www.w3.org/2000/svg">
<path d="M46.64 34.472C49.008 21.928 49.008 13.608 49.008 6.248V0.615997H6.19198V7.336H40.56C40.56 14.184 40.432 22.376 38.192 33.512L46.64 34.472Z" fill="black"/>
<path d="M28.08 40.616V20.328H19.632V40.616H0.815979V47.4H54.128V47.24H67.024V66.504H75.472V47.24H98.128V46.942H113.759V50.596H97.694V56.644H129.572V59.857H97.757V74.977H139.274V68.803H106.01V65.527H137.762V50.596H122.075V46.942H144.125V40.453H91.709V40.52H44.752V40.616H28.08Z" fill="black"/>
<path fill-rule="evenodd" clip-rule="evenodd" d="M91.728 10.44H50.896V34.248H91.728V10.44ZM83.472 27.592H59.216V17.096H83.472V27.592Z" fill="black"/>
<path d="M117.917 29.932C114.515 34.72 107.27 38.122 96.623 38.878L94.04 32.641C104.624 31.948 110.42 28.798 112.31 25.396H96.497V18.907H139.4V25.396H123.587C125.414 28.798 131.147 31.948 141.794 32.641L139.274 38.878C128.627 38.122 121.319 34.783 117.917 29.932Z" fill="black"/>
</svg>
